<?xml version="1.0" standalone="no"?><!DOCTYPE svg PUBLIC "-//W3C//DTD SVG 1.1//EN" "http://www.w3.org/Graphics/SVG/1.1/DTD/svg11.dtd"><svg t="1758123705853" class="icon" viewBox="0 0 1827 1024" version="1.1" xmlns="http://www.w3.org/2000/svg" p-id="14827" xmlns:xlink="http://www.w3.org/1999/xlink" width="356.8359375" height="200"><path d="M1724.499417 51.749596v405.764569H1521.617132V153.190739a50.720571 50.720571 0 0 0-50.720571-50.720572H760.808566a50.720571 50.720571 0 0 0-50.720571 50.720572v710.087995a50.720571 50.720571 0 0 0 50.720571 50.720571h710.087995a50.720571 50.720571 0 0 0 50.73101-50.720571V558.955307h202.871846v405.764569a50.720571 50.720571 0 1 0 101.441142 0V51.749596a50.720571 50.720571 0 1 0-101.441142 0zM608.646853 153.190739v710.087995a50.720571 50.720571 0 0 1-50.720571 50.720571H355.043998a50.720571 50.720571 0 0 1-50.720572-50.720571V558.955307H101.441142v405.764569a50.720571 50.720571 0 1 1-101.441142 0V51.749596a50.720571 50.720571 0 1 1 101.441142 0v405.764569h202.882284V153.190739a50.720571 50.720571 0 0 1 50.720572-50.720572h202.882284a50.720571 50.720571 0 0 1 50.720571 50.720572z" fill="#209BFA" p-id="14828"></path></svg>