<?xml version="1.0" standalone="no"?><!DOCTYPE svg PUBLIC "-//W3C//DTD SVG 1.1//EN" "http://www.w3.org/Graphics/SVG/1.1/DTD/svg11.dtd"><svg t="1758125485995" class="icon" viewBox="0 0 1024 1024" version="1.1" xmlns="http://www.w3.org/2000/svg" p-id="18730" xmlns:xlink="http://www.w3.org/1999/xlink" width="200" height="200"><path d="M791.594667 834.261333L640 682.666667a212.992 212.992 0 0 0 85.333333-170.666667h213.333334a425.685333 425.685333 0 0 1-147.072 322.261333z" fill="#979797" p-id="18731"></path><path d="M757.76 860.8A424.704 424.704 0 0 1 512 938.666667C276.352 938.666667 85.333333 747.648 85.333333 512c0-221.226667 168.405333-403.157333 384-424.533333V302.933333a213.418667 213.418667 0 1 0 132.992 402.389334l155.477334 155.477333z" fill="#007AFF" p-id="18732"></path><path d="M721.066667 469.333333A213.418667 213.418667 0 0 0 512 298.666667V85.333333c221.226667 0 403.157333 168.405333 424.533333 384H721.066667z" fill="#00DB84" p-id="18733"></path></svg>