<svg xmlns="http://www.w3.org/2000/svg" style="display: none;">
  <defs>
    <!-- 用户图标 -->
    <symbol id="icon-user" viewBox="0 0 24 24">
      <path d="M12 12c2.21 0 4-1.79 4-4s-1.79-4-4-4-4 1.79-4 4 1.79 4 4 4zm0 2c-2.67 0-8 1.34-8 4v2h16v-2c0-2.66-5.33-4-8-4z"/>
    </symbol>
    
    <!-- 首页图标 -->
    <symbol id="icon-home" viewBox="0 0 24 24">
      <path d="M10 20v-6h4v6h5v-8h3L12 3 2 12h3v8z"/>
    </symbol>
    
    <!-- 设置图标 -->
    <symbol id="icon-setting" viewBox="0 0 24 24">
      <path d="M19.14,12.94c0.04-0.3,0.06-0.61,0.06-0.94c0-0.32-0.02-0.64-0.07-0.94l2.03-1.58c0.18-0.14,0.23-0.41,0.12-0.61 l-1.92-3.32c-0.12-0.22-0.37-0.29-0.59-0.22l-2.39,0.96c-0.5-0.38-1.03-0.7-1.62-0.94L14.4,2.81c-0.04-0.24-0.24-0.41-0.48-0.41 h-3.84c-0.24,0-0.43,0.17-0.47,0.41L9.25,5.35C8.66,5.59,8.12,5.92,7.63,6.29L5.24,5.33c-0.22-0.08-0.47,0-0.59,0.22L2.74,8.87 C2.62,9.08,2.66,9.34,2.86,9.48l2.03,1.58C4.84,11.36,4.8,11.69,4.8,12s0.02,0.64,0.07,0.94l-2.03,1.58 c-0.18,0.14-0.23,0.41-0.12,0.61l1.92,3.32c0.12,0.22,0.37,0.29,0.59,0.22l2.39-0.96c0.5,0.38,1.03,0.7,1.62,0.94l0.36,2.54 c0.05,0.24,0.24,0.41,0.48,0.41h3.84c0.24,0,0.44-0.17,0.47-0.41l0.36-2.54c0.59-0.24,1.13-0.56,1.62-0.94l2.39,0.96 c0.22,0.08,0.47,0,0.59-0.22l1.92-3.32c0.12-0.22,0.07-0.47-0.12-0.61L19.14,12.94z M12,15.6c-1.98,0-3.6-1.62-3.6-3.6 s1.62-3.6,3.6-3.6s3.6,1.62,3.6,3.6S13.98,15.6,12,15.6z"/>
    </symbol>
    
    <!-- 心形图标 -->
    <symbol id="icon-heart" viewBox="0 0 24 24">
      <path d="M12,21.35l-1.45-1.32C5.4,15.36,2,12.28,2,8.5 C2,5.42,4.42,3,7.5,3c1.74,0,3.41,0.81,4.5,2.09C13.09,3.81,14.76,3,16.5,3 C19.58,3,22,5.42,22,8.5c0,3.78-3.4,6.86-8.55,11.54L12,21.35z"/>
    </symbol>
    
    <!-- 星形图标 -->
    <symbol id="icon-star" viewBox="0 0 24 24">
      <path d="M12,17.27L18.18,21l-1.64-7.03L22,9.24l-7.19-0.61L12,2L9.19,8.63L2,9.24l5.46,4.73L5.82,21L12,17.27z"/>
    </symbol>
    
    <!-- 柱状图图标 -->
    <symbol id="icon-barchart" viewBox="0 0 78.59 80.42">
      <defs>
        <linearGradient id="linear-gradient" x1="15.72" y1="68.76" x2="15.43" y2="49.22" gradientUnits="userSpaceOnUse">
          <stop offset="0" stop-color="#f2cc0c"/>
          <stop offset="1" stop-color="#ff9830"/>
        </linearGradient>
        <linearGradient id="linear-gradient-2" x1="45.26" y1="68.7" x2="44.55" y2="24.23" href="#linear-gradient"/>
        <linearGradient id="linear-gradient-3" x1="73.92" y1="67.1" x2="74.48" y2="8.07" href="#linear-gradient"/>
      </defs>
      <rect fill="#3865ab" y="33.91" width="8.74" height="38.3" rx="1"/>
      <rect fill="#3865ab" x="29.31" y="39.5" width="8.74" height="32.72" rx="1"/>
      <rect fill="#3865ab" y="76.42" width="78.59" height="4" rx="1"/>
      <rect fill="#3865ab" x="58.62" y="9.13" width="8.74" height="63.08" rx="1"/>
      <rect fill="url(#linear-gradient)" x="11.22" y="48" width="8.74" height="24.21" rx="1"/>
      <rect fill="url(#linear-gradient-2)" x="40.53" y="20.1" width="8.74" height="52.12" rx="1"/>
      <rect fill="url(#linear-gradient-3)" x="69.84" width="8.74" height="72.21" rx="1"/>
    </symbol>
    
    <!-- 搜索图标 -->
    <symbol id="icon-search" viewBox="0 0 24 24">
      <path d="M15.5 14h-.79l-.28-.27C15.41 12.59 16 11.11 16 9.5 16 5.91 13.09 3 9.5 3S3 5.91 3 9.5 5.91 16 9.5 16c1.61 0 3.09-.59 4.23-1.57l.27.28v.79l5 4.99L20.49 19l-4.99-5zm-6 0C7.01 14 5 11.99 5 9.5S7.01 5 9.5 5 14 7.01 14 9.5 11.99 14 9.5 14z"/>
    </symbol>
    
    <!-- 编辑图标 -->
    <symbol id="icon-edit" viewBox="0 0 24 24">
      <path d="M3 17.25V21h3.75L17.81 9.94l-3.75-3.75L3 17.25zM20.71 7.04c.39-.39.39-1.02 0-1.41l-2.34-2.34c-.39-.39-1.02-.39-1.41 0l-1.83 1.83 3.75 3.75 1.83-1.83z"/>
    </symbol>
    
    <!-- 删除图标 -->
    <symbol id="icon-delete" viewBox="0 0 24 24">
      <path d="M6 19c0 1.1.9 2 2 2h8c1.1 0 2-.9 2-2V7H6v12zM19 4h-3.5l-1-1h-5l-1 1H5v2h14V4z"/>
    </symbol>
  </defs>
</svg>