<?xml version="1.0" standalone="no"?><!DOCTYPE svg PUBLIC "-//W3C//DTD SVG 1.1//EN" "http://www.w3.org/Graphics/SVG/1.1/DTD/svg11.dtd"><svg t="1758093058890" class="icon" viewBox="0 0 1260 1024" version="1.1" xmlns="http://www.w3.org/2000/svg" p-id="47198" xmlns:xlink="http://www.w3.org/1999/xlink" width="246.09375" height="200"><path d="M811.323077 787.692308L527.753846 527.753846 252.061538 787.692308c-23.630769 23.630769-55.138462 23.630769-78.76923 0-23.630769-23.630769-23.630769-55.138462 0-78.769231l315.076923-299.323077c23.630769-23.630769 55.138462-23.630769 78.769231 0l275.692307 267.815385 275.692308-259.938462c23.630769-23.630769 55.138462-23.630769 78.769231 0s23.630769 55.138462 0 78.769231l-315.076923 291.446154c-15.753846 23.630769-47.261538 23.630769-70.892308 0z m23.630769-291.446154L551.384615 236.307692 275.692308 496.246154c-23.630769 23.630769-55.138462 23.630769-78.769231 0s-23.630769-55.138462 0-78.769231l315.076923-299.323077c23.630769-23.630769 55.138462-23.630769 78.769231 0L866.461538 385.969231l275.692308-259.938462c23.630769-23.630769 55.138462-23.630769 78.769231 0 23.630769 23.630769 23.630769 55.138462 0 78.769231l-307.2 291.446154c-23.630769 23.630769-55.138462 23.630769-78.769231 0zM78.769231 945.230769h1142.153846c23.630769 0 39.384615 15.753846 39.384615 39.384616s-15.753846 39.384615-39.384615 39.384615H39.384615c-7.876923 0-23.630769-7.876923-31.507692-7.876923 0-7.876923-7.876923-23.630769-7.876923-31.507692V39.384615C0 15.753846 15.753846 0 39.384615 0s39.384615 15.753846 39.384616 39.384615V945.230769z" fill="#00C5FF" p-id="47199"></path></svg>