<?xml version="1.0" standalone="no"?><!DOCTYPE svg PUBLIC "-//W3C//DTD SVG 1.1//EN" "http://www.w3.org/Graphics/SVG/1.1/DTD/svg11.dtd"><svg t="1758123374392" class="icon" viewBox="0 0 1024 1024" version="1.1" xmlns="http://www.w3.org/2000/svg" p-id="11461" xmlns:xlink="http://www.w3.org/1999/xlink" width="200" height="200"><path d="M466.17 98.23h93.66v829.99h-93.66z" fill="#337BFF" p-id="11462"></path><path d="M559.83 792.95v56.85l274.5-123.52v-56.89l-274.5 123.56zM559.83 566.87v56.85l274.5-123.53v-56.88l-274.5 123.56zM559.83 167.99v56.84l274.5 123.56v-56.88l-274.5-123.52z" fill="#A9CCFF" p-id="11463"></path><path d="M98 98.23h93.66v829.99H98z" fill="#337BFF" p-id="11464"></path><path d="M191.67 669.39v56.89l274.5 123.52v-56.85l-274.5-123.56zM191.67 443.31v56.88l274.5 123.53v-56.85l-274.5-123.56zM191.67 291.51v56.88l274.5-123.56v-56.84l-274.5 123.52z" fill="#A9CCFF" p-id="11465"></path><path d="M834.33 98.23h93.66v829.99h-93.66z" fill="#337BFF" p-id="11466"></path><path d="M834.33 524.22l-274.5-123.53v56.85l274.5 123.56v-56.88zM191.67 524.22v56.88l274.5-123.56v-56.85l-274.5 123.53z" fill="#A9CCFF" p-id="11467"></path></svg>