<?xml version="1.0" standalone="no"?><!DOCTYPE svg PUBLIC "-//W3C//DTD SVG 1.1//EN" "http://www.w3.org/Graphics/SVG/1.1/DTD/svg11.dtd"><svg t="1758092439169" class="icon" viewBox="0 0 1024 1024" version="1.1" xmlns="http://www.w3.org/2000/svg" p-id="18211" xmlns:xlink="http://www.w3.org/1999/xlink" width="200" height="200"><path d="M508.8 3.2l-51.2 3.2C196.8 32 0 254.4 0 515.2 0 795.2 228.8 1024 508.8 1024 776 1024 992 827.2 1011.2 566.4l6.4-51.2H508.8V3.2z m412.8 601.6c-44.8 190.4-209.6 331.2-412.8 331.2-228.8 0-419.2-190.4-419.2-419.2 0-203.2 139.2-376 331.2-412.8v496l500.8 4.8z" fill="#3484FE" p-id="18212"></path><path d="M624 19.2L566.4 12.8v444.8h451.2v-44.8C992 209.6 827.2 44.8 624 19.2z m30.4 350.4V115.2c121.6 32 228.8 128 260.8 254.4H654.4z" fill="#3484FE" p-id="18213"></path><path d="M419.2 102.4C228.8 139.2 89.6 312 89.6 515.2c0 228.8 190.4 419.2 419.2 419.2 203.2 0 369.6-139.2 412.8-331.2l-502.4-6.4V102.4z" fill="#3484FE" opacity=".2" p-id="18214"></path><path d="M654.4 369.6h260.8c-32-128-139.2-222.4-260.8-254.4v254.4z" fill="#3484FE" opacity=".2" p-id="18215"></path></svg>