<?xml version="1.0" standalone="no"?><!DOCTYPE svg PUBLIC "-//W3C//DTD SVG 1.1//EN" "http://www.w3.org/Graphics/SVG/1.1/DTD/svg11.dtd"><svg t="1758092343169" class="icon" viewBox="0 0 1024 1024" version="1.1" xmlns="http://www.w3.org/2000/svg" p-id="12863" xmlns:xlink="http://www.w3.org/1999/xlink" width="200" height="200"><path d="M131.008 422.208l356.992 105.408L259.584 875.84 131.008 422.208z m414.656 104.768l344.768-98.112-126.56 425.92-218.208-327.808z m199.232 372.928H291.904l224.96-348.288 228.032 348.288z m-252.544-411.424L145.024 382.912l347.328-245.696v351.264z m39.744 3.52V133.92l358.144 252.064-358.144 106.016z m-17.568-420.672l-435.2 305.504L237.952 941.76h545.024l166.784-564.928-435.2-305.504z" fill="#97DCF9" p-id="12864"></path><path d="M695.36 773.28H325.824l-106.112-373.44 294.816-216.224 294.816 216.256z" fill="#30B9F3" p-id="12865"></path><path d="M514.56 314.496l-180.8 143.2 108.224 185.024 224.32 94.464 34.24-279.488z" fill="#97DCF9" p-id="12866"></path></svg>