<?xml version="1.0" standalone="no"?><!DOCTYPE svg PUBLIC "-//W3C//DTD SVG 1.1//EN" "http://www.w3.org/Graphics/SVG/1.1/DTD/svg11.dtd"><svg t="1758121756565" class="icon" viewBox="0 0 1032 1024" version="1.1" xmlns="http://www.w3.org/2000/svg" p-id="9336" xmlns:xlink="http://www.w3.org/1999/xlink" width="201.5625" height="200"><path d="M1028.266667 0H4.266667v1024h1024V0z" fill="#FFFFFF" fill-opacity=".01" p-id="9337"></path><path d="M516.266667 64l466.688 339.029333L814.933333 960H217.6L49.621333 403.029333 516.266667 64z" fill="#2F88FF" p-id="9338"></path><path d="M846.634667 1002.666667H185.898667L0 386.346667 516.266667 11.264l516.266666 375.082667L846.634667 1002.666667z m-597.333334-85.333334h533.930667l150.144-497.578666L516.266667 116.736 99.242667 419.754667 249.301333 917.333333z" fill="#333333" p-id="9339"></path><path d="M782.805333 988.074667l-149.333333-170.666667 64.256-56.149333 149.333333 170.666666-64.256 56.149334zM249.685333 988.074667l-64.170666-56.149334 149.333333-170.666666 64.170667 56.149333-149.333334 170.666667zM248.021333 510.208l-213.333333-64 24.490667-81.749333 213.333333 64-24.490667 81.749333zM784.512 510.208l-24.490667-81.749333 213.333334-64 24.490666 81.749333-213.333333 64zM558.933333 277.333333h-85.333333v-213.333333h85.333333v213.333333z" fill="#FFFFFF" p-id="9340"></path><path d="M516.266667 277.333333l128.170666 97.493334L772.266667 469.333333l-106.666667 320h-298.666667L260.266667 469.333333l127.872-94.506666L516.266667 277.333333z" fill="#43CCF8" p-id="9341"></path><path d="M696.362667 832H336.170667l-126.208-378.581333 152.789333-112.896L516.266667 223.744l153.984 117.162667 152.277333 112.554666-126.165333 378.538667z m-298.666667-85.333333h237.184l87.125333-261.418667L516.266667 330.922667l-205.738667 154.282666L397.696 746.666667z" fill="#FFFFFF" p-id="9342"></path><path d="M50.730667 554.581333L0 386.346667 141.184 283.733333l50.176 69.077334-92.117333 66.901333 33.194666 110.208-81.706666 24.661333zM366.933333 1002.666667H185.898667l-51.157334-169.6 81.706667-24.661334 32.853333 108.928H366.933333v85.333334zM846.634667 1002.666667H665.6v-85.333334h117.632l32.853333-108.928 81.664 24.661334-51.114666 169.6zM981.76 554.581333l-81.664-24.661333 33.237333-110.208-92.16-66.901333 50.176-69.077334L1032.533333 386.346667l-50.773333 168.234666zM607.829333 183.296L516.266667 116.736l-91.562667 66.56-50.176-69.034667L516.266667 11.264l141.738666 102.997333-50.176 69.034667z" fill="#333333" p-id="9343"></path></svg>