<?xml version="1.0" standalone="no"?><!DOCTYPE svg PUBLIC "-//W3C//DTD SVG 1.1//EN" "http://www.w3.org/Graphics/SVG/1.1/DTD/svg11.dtd"><svg t="1758092888917" class="icon" viewBox="0 0 1024 1024" version="1.1" xmlns="http://www.w3.org/2000/svg" p-id="37597" xmlns:xlink="http://www.w3.org/1999/xlink" width="200" height="200"><path d="M51.2 0a51.2 51.2 0 0 1 51.2 51.2v870.4h870.4a51.2 51.2 0 0 1 0 102.4H0V51.2a51.2 51.2 0 0 1 51.2-51.2z" fill="#4E8CEE" p-id="37598"></path><path d="M936.6016 402.2272a51.2 51.2 0 0 1 76.6464 67.584l-4.2496 4.864-186.5728 186.5216a214.8352 214.8352 0 0 1-295.2704 8.1408l-8.5504-8.1408a112.4352 112.4352 0 0 0-152.576-5.9904l-6.4 5.9904-84.6336 84.6336a51.2 51.2 0 0 1-76.6464-67.584l4.2496-4.864L287.1808 588.8a214.8352 214.8352 0 0 1 295.2704-8.0896l8.5504 8.0896a112.4352 112.4352 0 0 0 152.576 5.9904l6.4512-5.9904 186.5728-186.5728z" fill="#FFB04B" p-id="37599"></path><path d="M936.6016 117.4016a51.2 51.2 0 0 1 76.6464 67.584l-4.2496 4.8128-186.5728 186.5728a214.8352 214.8352 0 0 1-295.2704 8.0896l-8.5504-8.0896a112.4352 112.4352 0 0 0-152.576-5.9904l-6.4 5.9904L274.944 460.9536a51.2 51.2 0 0 1-76.6464-67.584l4.2496-4.8128 84.5824-84.5824a214.8352 214.8352 0 0 1 295.2704-8.1408l8.5504 8.1408a112.4352 112.4352 0 0 0 152.576 5.9392l6.4512-5.9392 186.5728-186.5728z" fill="#2F86FF" p-id="37600"></path></svg>